<?xml version="1.0" standalone="no"?>
<!DOCTYPE svg PUBLIC "-//W3C//DTD SVG 20010904//EN"
 "http://www.w3.org/TR/2001/REC-SVG-20010904/DTD/svg10.dtd">
<svg version="1.0" xmlns="http://www.w3.org/2000/svg"
 width="150.000000pt" height="123.000000pt" viewBox="0 0 150.000000 123.000000"
 preserveAspectRatio="xMidYMid meet">

<g transform="translate(0.000000,123.000000) scale(0.100000,-0.100000)"
fill="#000000" stroke="none">
<path d="M356 636 l-48 -313 25 -27 24 -26 316 0 317 0 14 23 c13 20 96 519
96 578 0 15 -7 32 -15 39 -8 7 -15 19 -15 26 0 12 -57 14 -333 14 l-333 0 -48
-314z m194 272 c0 -13 -11 -142 -25 -287 -14 -145 -25 -266 -25 -268 0 -1 -29
-3 -65 -3 l-64 0 41 38 41 38 13 130 c8 71 15 168 16 216 3 87 3 87 -31 122
l-35 36 67 0 c63 0 67 -1 67 -22z m243 11 c52 -14 112 -71 133 -124 22 -59 16
-181 -14 -247 -27 -62 -102 -142 -159 -169 -33 -16 -71 -23 -139 -27 l-94 -5
0 34 c0 19 11 144 25 279 14 135 25 251 25 258 0 15 167 17 223 1z m164 -112
c49 -72 54 -176 12 -260 -21 -41 -86 -117 -101 -117 -4 0 8 26 27 58 65 111
80 223 40 318 -18 43 -7 44 22 1z"/>
<path d="M653 873 c-31 -4 -32 -5 -38 -71 -3 -37 -12 -119 -19 -182 -7 -63
-13 -137 -12 -165 l1 -50 42 -3 c158 -12 305 202 249 361 -31 86 -111 125
-223 110z m137 -161 c0 -17 -75 -102 -89 -102 -23 0 -15 18 27 66 51 57 62 64
62 36z"/>
</g>
</svg>
