<?xml version="1.0" encoding="UTF-8"?>
<svg xmlns="http://www.w3.org/2000/svg" xmlns:xlink="http://www.w3.org/1999/xlink" width="32pt" height="32pt" viewBox="0 0 32 32" version="1.1">
<g id="surface21853195">
<path style=" stroke:none;fill-rule:nonzero;fill:rgb(10.588235%,66.274512%,29.803923%);fill-opacity:1;" d="M 15.996094 3 C 14.226562 3 5.535156 7.984375 4.65625 9.503906 C 3.78125 11.023438 3.78125 20.984375 4.65625 22.5 C 5.539062 24.015625 14.230469 29 15.996094 29 C 17.761719 29 26.453125 24.019531 27.335938 22.503906 C 28.222656 20.980469 28.222656 11.015625 27.335938 9.5 L 27.335938 9.496094 C 26.445312 7.980469 17.757812 3 15.996094 3 Z M 15.996094 5.011719 C 17.691406 5.363281 24.417969 9.214844 25.597656 10.507812 C 26.136719 12.152344 26.132812 19.84375 25.597656 21.488281 C 24.425781 22.777344 17.695312 26.636719 15.996094 26.988281 C 14.296875 26.636719 7.574219 22.785156 6.402344 21.492188 C 5.867188 19.84375 5.867188 12.15625 6.402344 10.507812 C 7.570312 9.214844 14.296875 5.363281 15.996094 5.011719 Z M 13 9 L 11 11 L 12 11 L 12 21 L 14 21 L 14 17 L 18 17 L 18 21 L 17 21 L 19 23 L 21 21 L 20 21 L 20 12 L 18 12 L 18 15 L 14 15 L 14 11 L 15 11 Z M 13 9 "/>
</g>
</svg>
