<?xml version="1.0" standalone="no"?>
<!DOCTYPE svg PUBLIC "-//W3C//DTD SVG 20010904//EN"
 "http://www.w3.org/TR/2001/REC-SVG-20010904/DTD/svg10.dtd">
<svg version="1.0" xmlns="http://www.w3.org/2000/svg"
 width="400.000000pt" height="400.000000pt" viewBox="0 0 400.000000 400.000000"
 preserveAspectRatio="xMidYMid meet">
<metadata>
Created by potrace 1.16, written by Peter Selinger 2001-2019
</metadata>
<g transform="translate(0.000000,400.000000) scale(0.100000,-0.100000)"
fill="#000000" stroke="none">
<path d="M1665 3474 c-88 -5 -454 -42 -495 -50 l-30 -6 0 -227 c0 -201 11
-374 26 -423 4 -13 11 -15 37 -7 52 15 102 10 183 -16 42 -14 100 -25 129 -25
29 0 82 11 123 25 75 26 142 32 189 15 34 -12 21 -2 -62 45 -68 39 -57 43 52
21 37 -8 85 -17 107 -20 l38 -6 -41 48 c-22 27 -48 55 -56 62 -9 7 -20 21 -26
31 -8 15 7 11 73 -17 46 -20 89 -39 97 -42 9 -3 3 15 -16 49 -82 148 -103 189
-96 189 4 0 49 -41 100 -92 51 -51 94 -90 96 -87 3 2 -2 49 -9 104 -7 55 -13
105 -14 110 0 6 27 -35 59 -89 51 -85 60 -96 65 -75 12 57 36 219 36 245 1 77
27 -41 46 -208 3 -32 9 -58 13 -58 3 1 31 43 61 95 30 51 56 90 58 85 2 -4 -4
-48 -12 -97 -9 -48 -16 -95 -16 -103 0 -8 48 33 106 90 l106 105 -65 -130
c-36 -71 -65 -131 -63 -132 2 -2 34 11 71 28 123 55 122 55 76 1 -22 -27 -48
-55 -56 -62 -9 -7 -21 -22 -26 -32 -11 -21 -11 -21 134 8 108 21 119 15 44
-26 l-65 -35 77 -1 c42 -1 85 -3 96 -5 18 -4 21 4 32 81 6 47 12 196 12 331
l1 247 -82 11 c-240 32 -393 42 -708 45 -184 2 -366 2 -405 0z m-147 -292 c2
-87 0 -113 -10 -110 -7 3 -37 -1 -68 -9 -30 -7 -58 -13 -62 -13 -5 0 -8 51 -8
113 l0 114 48 10 c26 6 58 10 72 9 25 -1 25 -1 28 -114z m114 106 l58 -12 0
-113 c0 -126 4 -120 -75 -99 -27 7 -56 11 -62 9 -10 -4 -13 22 -13 105 0 60 3
112 7 115 9 9 18 9 85 -5z m-292 -149 l0 -112 63 8 c34 4 91 7 127 7 36 0 93
-3 128 -7 l62 -8 0 112 c0 92 3 111 15 111 13 0 15 -20 15 -122 l0 -123 -225
0 -225 0 0 116 c0 117 3 129 27 129 10 0 13 -25 13 -111z"/>
<path d="M1194 2613 c3 -10 15 -48 26 -84 l20 -66 49 -1 c27 -1 73 -11 102
-22 72 -29 177 -29 242 0 66 29 163 29 236 0 66 -25 184 -29 228 -7 72 38 191
38 279 1 58 -24 158 -22 218 5 31 13 71 22 107 22 l58 1 20 61 c27 80 27 95
-5 103 -41 10 -156 -1 -191 -19 -61 -32 -133 -33 -229 -2 -72 23 -98 27 -158
22 -41 -3 -86 -13 -106 -23 -50 -27 -147 -24 -232 5 -82 28 -191 26 -248 -5
-50 -27 -156 -25 -238 4 -38 13 -85 22 -123 22 -53 0 -60 -2 -55 -17z"/>
<path d="M1650 2264 c-93 -34 -162 -35 -254 -6 -38 12 -70 21 -72 20 -4 -5
123 -195 136 -203 24 -15 116 -6 170 16 75 30 175 30 250 0 79 -33 156 -32
255 3 88 31 122 31 230 -3 33 -10 83 -22 111 -26 51 -6 52 -6 84 32 35 42 120
176 114 182 -1 1 -33 -7 -71 -20 -83 -28 -157 -28 -236 0 -101 36 -143 37
-232 5 -97 -34 -176 -36 -253 -5 -87 35 -145 36 -232 5z"/>
<path d="M1665 1923 l-49 -15 34 -29 c64 -54 196 -139 270 -173 69 -32 76 -33
110 -21 87 31 242 122 313 185 l38 33 -32 14 c-66 28 -138 27 -218 -1 -95 -33
-162 -33 -264 -1 -88 28 -131 30 -202 8z"/>
<path d="M1428 1433 c-44 -5 -50 -20 -10 -25 l27 -3 0 -205 c0 -205 0 -205
-22 -208 -13 -2 -23 -8 -23 -13 0 -5 34 -9 75 -9 43 0 75 4 75 10 0 6 -9 10
-19 10 -10 0 -22 7 -25 16 -9 23 -7 102 2 108 4 2 40 -27 80 -66 66 -65 77
-71 120 -75 l47 -3 -25 17 c-14 10 -59 50 -100 90 l-75 73 40 35 c22 19 57 43
77 52 47 22 48 33 4 30 -24 -2 -47 -16 -84 -51 -99 -94 -92 -99 -92 73 0 138
-2 151 -17 149 -10 -1 -35 -3 -55 -5z"/>
<path d="M2028 1433 c-46 -5 -49 -18 -8 -27 l30 -6 -2 -202 c-3 -202 -3 -203
-25 -206 -13 -2 -23 -7 -23 -12 0 -5 34 -8 75 -7 71 1 101 12 53 19 -22 3 -23
9 -26 88 -4 110 1 127 43 147 28 13 38 14 64 4 40 -17 51 -53 51 -167 l0 -94
44 0 c47 0 72 16 34 22 -22 3 -23 8 -28 117 -6 108 -7 115 -34 137 -37 33 -95
32 -134 -1 -17 -14 -33 -25 -36 -25 -3 0 -6 50 -6 110 0 99 -2 110 -17 108
-10 -1 -35 -3 -55 -5z"/>
<path d="M3153 1433 c-50 -5 -56 -18 -13 -26 30 -6 30 -7 30 -77 l0 -71 -49 7
c-85 11 -173 -46 -187 -122 -9 -50 4 -101 35 -136 22 -24 37 -32 77 -35 46 -5
54 -2 87 26 l36 32 3 -28 c3 -26 6 -28 51 -29 26 -1 47 2 47 7 0 5 -9 9 -19 9
-10 0 -22 7 -25 16 -3 9 -6 110 -6 225 0 161 -3 209 -12 207 -7 -1 -32 -3 -55
-5z m-8 -209 c23 -15 25 -23 25 -89 0 -83 -19 -119 -69 -130 -95 -21 -161 136
-90 211 27 29 96 33 134 8z"/>
<path d="M730 1401 c0 -5 12 -11 28 -13 l27 -3 3 -182 c2 -173 1 -184 -18
-200 -11 -10 -20 -20 -20 -24 0 -4 70 -7 155 -7 173 -1 155 -10 169 76 7 42
-20 45 -29 2 -9 -41 -31 -50 -119 -50 l-76 0 0 195 0 195 24 0 c14 0 28 5 31
10 4 6 -27 10 -84 10 -50 0 -91 -4 -91 -9z"/>
<path d="M1163 1253 c-23 -12 -33 -24 -33 -39 0 -33 18 -39 26 -9 7 30 31 45
72 45 36 0 51 -16 54 -60 3 -33 2 -34 -42 -42 -124 -21 -177 -92 -115 -153 31
-32 66 -32 113 0 46 31 52 31 52 0 0 -24 3 -26 41 -23 41 2 67 18 30 18 -12 0
-21 3 -22 8 -1 4 -2 58 -3 121 -2 105 -4 116 -25 133 -29 23 -103 23 -148 1z"/>
<path d="M1815 1256 c-54 -24 -78 -60 -83 -125 -6 -79 17 -127 72 -152 62 -28
124 -22 168 18 29 26 11 32 -32 11 -34 -17 -44 -18 -75 -8 -43 14 -75 53 -75
91 l0 29 100 0 100 0 0 35 c0 94 -83 142 -175 101z"/>
<path d="M2445 1256 c-17 -7 -43 -28 -58 -45 -23 -27 -27 -42 -27 -92 0 -35 7
-73 16 -90 17 -34 82 -68 127 -69 41 0 122 43 112 60 -3 4 -23 -1 -45 -12 -33
-17 -45 -18 -73 -9 -43 15 -73 47 -82 89 l-7 32 106 0 106 0 0 35 c0 93 -83
141 -175 101z"/>
<path d="M2710 1251 c-37 -19 -51 -48 -29 -61 8 -6 18 2 28 23 14 27 22 32 59
35 41 3 43 2 58 -34 18 -44 13 -64 -19 -64 -44 0 -126 -30 -142 -53 -22 -32
-19 -80 8 -105 31 -29 73 -28 113 3 41 32 54 32 54 0 0 -22 4 -25 39 -25 22 0
43 5 46 10 3 6 -3 10 -13 10 -28 0 -32 18 -32 136 0 91 -3 107 -20 124 -26 26
-102 27 -150 1z"/>
</g>
</svg>
